# xmcd
#
# Track frame offsets: 
#        150
#        22441
#        40176
#        59074
#        85600
#        89953
#        115929
#        143799
#        163450
#        183365
#        196739
#
# Disc length: 2848 seconds
#
# Revision: 0
# Processed by: cddbd v1.5.2PL0 Copyright (c) Steve Scherf et al.
# Submitted via: ExactAudioCopyFreeDBPlugin 1.0
#
DISCID=a30b1e0b
DTITLE=Harvey Mason - Earthmover [Expanded Edition]
DYEAR=2011
DGENRE=Fusion
TTITLE0=K.Y. And The Curb
TTITLE1=Sho Nuff Groove
TTITLE2=The Mase
TTITLE3=Sweet Mercy
TTITLE4=Earthmover Prelude
TTITLE5=Bertha Baptist
TTITLE6=First Summer
TTITLE7=No Lands Man
TTITLE8=When I'm With You (Live Version)
TTITLE9=K.Y. And The Curb (US Single)
TTITLE10=The Mase (UK Single)
EXTD=
EXTT0=
EXTT1=
EXTT2=
EXTT3=
EXTT4=
EXTT5=
EXTT6=
EXTT7=
EXTT8=
EXTT9=
EXTT10=
PLAYORDER=
